{
  "accessors": [
    {
      "bufferView": 2,
      "componentType": 5126,
      "count": 4092,
      "max": [
        12.6766996383667,
        15.860699653625488,
        15.567999839782715
      ],
      "min": [
        -9.861900329589844,
        -11.72719955444336,
        -0.18250000476837158
      ],
      "type": "VEC3"
    },
    {
      "bufferView": 2,
      "byteOffset": 49104,
      "componentType": 5126,
      "count": 4092,
      "max": [
        1.0,
        1.0,
        0.9999783039093018
      ],
      "min": [
        -1.0,
        -1.0,
        -0.9999783039093018
      ],
      "type": "VEC3"
    },
    {
      "bufferView": 3,
      "componentType": 5126,
      "count": 4092,
      "max": [
        1.0,
        1.0,
        1.0,
        1.0
      ],
      "min": [
        -0.8507186770439148,
        -1.0,
        -1.0,
        1.0
      ],
      "type": "VEC4"
    },
    {
      "bufferView": 1,
      "componentType": 5126,
      "count": 4092,
      "max": [
        0.9994000196456909,
        0.9994999766349792
      ],
      "min": [
        0.0005000000237487257,
        0.0005000000237487257
      ],
      "type": "VEC2"
    },
    {
      "bufferView": 0,
      "componentType": 5125,
      "count": 8880,
      "type": "SCALAR"
    },
    {
      "bufferView": 2,
      "byteOffset": 98208,
      "componentType": 5126,
      "count": 798,
      "max": [
        15.888699531555176,
        15.524299621582031,
        16.531999588012695
      ],
      "min": [
        -9.49940013885498,
        -11.364299774169922,
        -0.12890000641345978
      ],
      "type": "VEC3"
    },
    {
      "bufferView": 2,
      "byteOffset": 107784,
      "componentType": 5126,
      "count": 798,
      "max": [
        1.0,
        1.0,
        1.0
      ],
      "min": [
        -1.0,
        -1.0,
        -1.0
      ],
      "type": "VEC3"
    },
    {
      "bufferView": 3,
      "byteOffset": 65472,
      "componentType": 5126,
      "count": 798,
      "max": [
        1.0,
        1.0,
        1.0,
        1.0
      ],
      "min": [
        -1.0,
        -0.9999890327453613,
        -1.0,
        1.0
      ],
      "type": "VEC4"
    },
    {
      "bufferView": 1,
      "byteOffset": 32736,
      "componentType": 5126,
      "count": 798,
      "max": [
        0.9848999977111816,
        0.9919000267982483
      ],
      "min": [
        0.013899999670684338,
        0.01600000075995922
      ],
      "type": "VEC2"
    },
    {
      "bufferView": 0,
      "byteOffset": 35520,
      "componentType": 5125,
      "count": 2520,
      "type": "SCALAR"
    },
    {
      "bufferView": 2,
      "byteOffset": 117360,
      "componentType": 5126,
      "count": 480,
      "max": [
        12.18220043182373,
        15.575400352478027,
        16.06999969482422
      ],
      "min": [
        -9.480299949645996,
        -11.346199989318848,
        -0.13420000672340393
      ],
      "type": "VEC3"
    },
    {
      "bufferView": 2,
      "byteOffset": 123120,
      "componentType": 5126,
      "count": 480,
      "max": [
        1.0,
        1.0,
        0.9999916553497314
      ],
      "min": [
        -1.0,
        -1.0,
        -0.9999407529830933
      ],
      "type": "VEC3"
    },
    {
      "bufferView": 3,
      "byteOffset": 78240,
      "componentType": 5126,
      "count": 480,
      "max": [
        0.9999998211860657,
        0.9999911189079285,
        1.0,
        -1.0
      ],
      "min": [
        -0.26167580485343933,
        -0.999999463558197,
        -0.2723030745983124,
        -1.0
      ],
      "type": "VEC4"
    },
    {
      "bufferView": 1,
      "byteOffset": 39120,
      "componentType": 5126,
      "count": 480,
      "max": [
        0.9994999766349792,
        0.9969000220298767
      ],
      "min": [
        0.0005000000237487257,
        0.0005000000237487257
      ],
      "type": "VEC2"
    },
    {
      "bufferView": 0,
      "byteOffset": 45600,
      "componentType": 5125,
      "count": 1056,
      "type": "SCALAR"
    },
    {
      "bufferView": 2,
      "byteOffset": 128880,
      "componentType": 5126,
      "count": 1250,
      "max": [
        13.579700469970703,
        16.082799911499023,
        16.656400680541992
      ],
      "min": [
        -9.409299850463867,
        -12.256999969482422,
        14.665499687194824
      ],
      "type": "VEC3"
    },
    {
      "bufferView": 2,
      "byteOffset": 143880,
      "componentType": 5126,
      "count": 1250,
      "max": [
        0.9999970197677612,
        0.9999825954437256,
        0.9999831914901733
      ],
      "min": [
        -0.9999970197677612,
        -0.9999934434890747,
        -1.0
      ],
      "type": "VEC3"
    },
    {
      "bufferView": 3,
      "byteOffset": 85920,
      "componentType": 5126,
      "count": 1250,
      "max": [
        0.9999231100082397,
        0.9999977350234985,
        0.9999716281890869,
        1.0
      ],
      "min": [
        -0.9999459385871887,
        -0.999980092048645,
        -0.9999828338623047,
        1.0
      ],
      "type": "VEC4"
    },
    {
      "bufferView": 1,
      "byteOffset": 42960,
      "componentType": 5126,
      "count": 1250,
      "max": [
        0.982699990272522,
        0.9955000281333923
      ],
      "min": [
        0.006200000178068876,
        0.009200000204145908
      ],
      "type": "VEC2"
    },
    {
      "bufferView": 0,
      "byteOffset": 49824,
      "componentType": 5125,
      "count": 3996,
      "type": "SCALAR"
    },
    {
      "bufferView": 2,
      "byteOffset": 158880,
      "componentType": 5126,
      "count": 124,
      "max": [
        13.468099594116211,
        2.942199945449829,
        16.73579978942871
      ],
      "min": [
        12.354700088500977,
        0.7742000222206116,
        9.929400444030762
      ],
      "type": "VEC3"
    },
    {
      "bufferView": 2,
      "byteOffset": 160368,
      "componentType": 5126,
      "count": 124,
      "max": [
        0.9996646046638489,
        0.9998525977134705,
        0.9959045052528381
      ],
      "min": [
        -0.9994482398033142,
        -0.9998781681060791,
        -0.9959043860435486
      ],
      "type": "VEC3"
    },
    {
      "bufferView": 3,
      "byteOffset": 105920,
      "componentType": 5126,
      "count": 124,
      "max": [
        0.9986759424209595,
        0.9999582171440125,
        0.739945650100708,
        1.0
      ],
      "min": [
        -0.9990729093551636,
        -0.9995718598365784,
        -0.7541497945785522,
        1.0
      ],
      "type": "VEC4"
    },
    {
      "bufferView": 1,
      "byteOffset": 52960,
      "componentType": 5126,
      "count": 124,
      "max": [
        0.9624999761581421,
        0.9995999932289124
      ],
      "min": [
        0.026000000536441803,
        0.06350000202655792
      ],
      "type": "VEC2"
    },
    {
      "bufferView": 0,
      "byteOffset": 65808,
      "componentType": 5125,
      "count": 288,
      "type": "SCALAR"
    }
  ],
  "asset": {
    "extras": {
      "author": "shedmon (https://sketchfab.com/shedmon)",
      "license": "CC-BY-4.0 (http://creativecommons.org/licenses/by/4.0/)",
      "source": "https://sketchfab.com/3d-models/scrap-box-v2-3678cea70197416e861badc6c80b8ca9",
      "title": "Scrap Box V2"
    },
    "generator": "Sketchfab-13.17.0",
    "version": "2.0"
  },
  "bufferViews": [
    {
      "buffer": 0,
      "byteLength": 66960,
      "name": "floatBufferViews",
      "target": 34963
    },
    {
      "buffer": 0,
      "byteLength": 53952,
      "byteOffset": 66960,
      "byteStride": 8,
      "name": "floatBufferViews",
      "target": 34962
    },
    {
      "buffer": 0,
      "byteLength": 161856,
      "byteOffset": 120912,
      "byteStride": 12,
      "name": "floatBufferViews",
      "target": 34962
    },
    {
      "buffer": 0,
      "byteLength": 107904,
      "byteOffset": 282768,
      "byteStride": 16,
      "name": "floatBufferViews",
      "target": 34962
    }
  ],
  "buffers": [
    {
      "byteLength": 390672,
      "uri": "scene.bin"
    }
  ],
  "images": [
    {
      "uri": "textures/Bolts_baseColor.jpeg"
    },
    {
      "uri": "textures/Bolts_metallicRoughness.png"
    },
    {
      "uri": "textures/Bolts_normal.png"
    },
    {
      "uri": "textures/material_baseColor.jpeg"
    },
    {
      "uri": "textures/material_metallicRoughness.png"
    },
    {
      "uri": "textures/material_normal.png"
    },
    {
      "uri": "textures/Karkas_baseColor.jpeg"
    },
    {
      "uri": "textures/Karkas_metallicRoughness.png"
    },
    {
      "uri": "textures/Karkas_normal.png"
    },
    {
      "uri": "textures/Krishka_baseColor.jpeg"
    },
    {
      "uri": "textures/Krishka_metallicRoughness.png"
    },
    {
      "uri": "textures/Krishka_normal.png"
    },
    {
      "uri": "textures/Zamok_baseColor.jpeg"
    },
    {
      "uri": "textures/Zamok_metallicRoughness.png"
    },
    {
      "uri": "textures/Zamok_normal.png"
    }
  ],
  "materials": [
    {
      "doubleSided": true,
      "name": "Bolts",
      "normalTexture": {
        "index": 2
      },
      "occlusionTexture": {
        "index": 1
      },
      "pbrMetallicRoughness": {
        "baseColorTexture": {
          "index": 0
        },
        "metallicRoughnessTexture": {
          "index": 1
        }
      }
    },
    {
      "doubleSided": true,
      "name": "material",
      "normalTexture": {
        "index": 5
      },
      "occlusionTexture": {
        "index": 4
      },
      "pbrMetallicRoughness": {
        "baseColorTexture": {
          "index": 3
        },
        "metallicRoughnessTexture": {
          "index": 4
        }
      }
    },
    {
      "doubleSided": true,
      "name": "Karkas",
      "normalTexture": {
        "index": 8
      },
      "occlusionTexture": {
        "index": 7
      },
      "pbrMetallicRoughness": {
        "baseColorTexture": {
          "index": 6
        },
        "metallicRoughnessTexture": {
          "index": 7
        }
      }
    },
    {
      "doubleSided": true,
      "name": "Krishka",
      "normalTexture": {
        "index": 11
      },
      "occlusionTexture": {
        "index": 10
      },
      "pbrMetallicRoughness": {
        "baseColorTexture": {
          "index": 9
        },
        "metallicRoughnessTexture": {
          "index": 10
        }
      }
    },
    {
      "doubleSided": true,
      "name": "Zamok",
      "normalTexture": {
        "index": 14
      },
      "occlusionTexture": {
        "index": 13
      },
      "pbrMetallicRoughness": {
        "baseColorTexture": {
          "index": 12
        },
        "metallicRoughnessTexture": {
          "index": 13
        }
      }
    }
  ],
  "meshes": [
    {
      "name": "Object_0",
      "primitives": [
        {
          "attributes": {
            "NORMAL": 1,
            "POSITION": 0,
            "TANGENT": 2,
            "TEXCOORD_0": 3
          },
          "indices": 4,
          "material": 0,
          "mode": 4
        }
      ]
    },
    {
      "name": "Object_1",
      "primitives": [
        {
          "attributes": {
            "NORMAL": 6,
            "POSITION": 5,
            "TANGENT": 7,
            "TEXCOORD_0": 8
          },
          "indices": 9,
          "material": 1,
          "mode": 4
        }
      ]
    },
    {
      "name": "Object_2",
      "primitives": [
        {
          "attributes": {
            "NORMAL": 11,
            "POSITION": 10,
            "TANGENT": 12,
            "TEXCOORD_0": 13
          },
          "indices": 14,
          "material": 2,
          "mode": 4
        }
      ]
    },
    {
      "name": "Object_3",
      "primitives": [
        {
          "attributes": {
            "NORMAL": 16,
            "POSITION": 15,
            "TANGENT": 17,
            "TEXCOORD_0": 18
          },
          "indices": 19,
          "material": 3,
          "mode": 4
        }
      ]
    },
    {
      "name": "Object_4",
      "primitives": [
        {
          "attributes": {
            "NORMAL": 21,
            "POSITION": 20,
            "TANGENT": 22,
            "TEXCOORD_0": 23
          },
          "indices": 24,
          "material": 4,
          "mode": 4
        }
      ]
    }
  ],
  "nodes": [
    {
      "children": [
        1
      ],
      "matrix": [
        1.4860328435897827,
        0.0,
        0.0,
        0.0,
        0.0,
        3.2996557566051415e-16,
        -1.4860328435897827,
        0.0,
        0.0,
        1.4860328435897827,
        3.2996557566051415e-16,
        0.0,
        0.0,
        0.0,
        0.0,
        1.0
      ],
      "name": "Sketchfab_model"
    },
    {
      "children": [
        2,
        3,
        4,
        5,
        6
      ],
      "name": "dd3a3c01dd2b4555acd2b574b79592c2.obj.cleaner.materialmerger.gles"
    },
    {
      "mesh": 0,
      "name": "Object_2"
    },
    {
      "mesh": 1,
      "name": "Object_3"
    },
    {
      "mesh": 2,
      "name": "Object_4"
    },
    {
      "mesh": 3,
      "name": "Object_5"
    },
    {
      "mesh": 4,
      "name": "Object_6"
    }
  ],
  "samplers": [
    {
      "magFilter": 9729,
      "minFilter": 9987,
      "wrapS": 10497,
      "wrapT": 10497
    }
  ],
  "scene": 0,
  "scenes": [
    {
      "name": "Sketchfab_Scene",
      "nodes": [
        0
      ]
    }
  ],
  "textures": [
    {
      "sampler": 0,
      "source": 0
    },
    {
      "sampler": 0,
      "source": 1
    },
    {
      "sampler": 0,
      "source": 2
    },
    {
      "sampler": 0,
      "source": 3
    },
    {
      "sampler": 0,
      "source": 4
    },
    {
      "sampler": 0,
      "source": 5
    },
    {
      "sampler": 0,
      "source": 6
    },
    {
      "sampler": 0,
      "source": 7
    },
    {
      "sampler": 0,
      "source": 8
    },
    {
      "sampler": 0,
      "source": 9
    },
    {
      "sampler": 0,
      "source": 10
    },
    {
      "sampler": 0,
      "source": 11
    },
    {
      "sampler": 0,
      "source": 12
    },
    {
      "sampler": 0,
      "source": 13
    },
    {
      "sampler": 0,
      "source": 14
    }
  ]
}
